<mxfile host="app.diagrams.net" agent="Mozilla/5.0 (X11; Linux x86_64; rv:128.0) Gecko/20100101 Firefox/128.0" version="26.0.10">
  <diagram name="Page-1" id="LwtyrS3WK_ljkUNi1cgM">
    <mxGraphModel dx="1059" dy="735" grid="1" gridSize="10" guides="1" tooltips="1" connect="1" arrows="1" fold="1" page="1" pageScale="1" pageWidth="827" pageHeight="1169" math="0" shadow="0">
      <root>
        <mxCell id="0" />
        <mxCell id="1" parent="0" />
        <mxCell id="aOAeQF0Wjegpi84AHOQ5-2" style="edgeStyle=orthogonalEdgeStyle;rounded=1;orthogonalLoop=1;jettySize=auto;html=1;exitX=0.5;exitY=1;exitDx=0;exitDy=0;curved=0;strokeColor=default;strokeWidth=2;shadow=0;flowAnimation=0;jumpStyle=gap;jumpSize=10;snapToPoint=1;" edge="1" parent="1" source="VJZMklQSrdvJzkSKKXZ5-1" target="aOAeQF0Wjegpi84AHOQ5-3">
          <mxGeometry relative="1" as="geometry">
            <mxPoint x="1050" y="230" as="targetPoint" />
            <Array as="points">
              <mxPoint x="1380" y="260" />
              <mxPoint x="1180" y="260" />
              <mxPoint x="1180" y="380" />
            </Array>
          </mxGeometry>
        </mxCell>
        <mxCell id="VJZMklQSrdvJzkSKKXZ5-1" value="" style="rounded=1;whiteSpace=wrap;html=1;strokeWidth=2;snapToPoint=1;" parent="1" vertex="1">
          <mxGeometry x="1320" y="180" width="120" height="60" as="geometry" />
        </mxCell>
        <mxCell id="aOAeQF0Wjegpi84AHOQ5-3" value="" style="shape=cylinder3;whiteSpace=wrap;html=1;boundedLbl=1;backgroundOutline=1;size=15;fontFamily=Helvetica;fontSize=11;fontColor=default;labelBackgroundColor=default;strokeWidth=2;snapToPoint=1;" vertex="1" parent="1">
          <mxGeometry x="1350" y="340" width="60" height="80" as="geometry" />
        </mxCell>
        <mxCell id="aOAeQF0Wjegpi84AHOQ5-6" style="edgeStyle=orthogonalEdgeStyle;shape=connector;curved=0;rounded=1;jumpStyle=gap;jumpSize=10;orthogonalLoop=1;jettySize=auto;html=1;exitX=0.5;exitY=1;exitDx=0;exitDy=0;entryX=0.5;entryY=0;entryDx=0;entryDy=0;shadow=0;strokeColor=default;strokeWidth=2;align=center;verticalAlign=middle;fontFamily=Helvetica;fontSize=11;fontColor=default;labelBackgroundColor=default;endArrow=classic;flowAnimation=0;" edge="1" parent="1" source="aOAeQF0Wjegpi84AHOQ5-5" target="VJZMklQSrdvJzkSKKXZ5-1">
          <mxGeometry relative="1" as="geometry" />
        </mxCell>
        <mxCell id="aOAeQF0Wjegpi84AHOQ5-5" value="" style="rounded=1;whiteSpace=wrap;html=1;strokeWidth=2;snapToPoint=1;" vertex="1" parent="1">
          <mxGeometry x="1040" y="40" width="120" height="60" as="geometry" />
        </mxCell>
      </root>
    </mxGraphModel>
  </diagram>
</mxfile>
